<mxfile host="app.diagrams.net" modified="2023-03-01T07:25:45.534Z" agent="5.0 (Windows)" etag="ZfPgcaPh9VnGcJzsPtLC" version="20.8.23" type="github">
  <diagram id="C5RBs43oDa-KdzZeNtuy" name="Page-1">
    <mxGraphModel dx="1018" dy="634" grid="1" gridSize="10" guides="1" tooltips="1" connect="1" arrows="1" fold="1" page="1" pageScale="1" pageWidth="827" pageHeight="1169" math="0" shadow="0">
      <root>
        <mxCell id="WIyWlLk6GJQsqaUBKTNV-0" />
        <mxCell id="WIyWlLk6GJQsqaUBKTNV-1" parent="WIyWlLk6GJQsqaUBKTNV-0" />
        <mxCell id="ksosTr8VarCVj8tIcV6C-0" value="&lt;div align=&quot;left&quot;&gt;&lt;br&gt;&lt;/div&gt;" style="rounded=0;whiteSpace=wrap;html=1;strokeColor=#206ace;align=left;movable=1;resizable=1;rotatable=1;deletable=1;editable=1;locked=0;connectable=1;fontStyle=1" vertex="1" parent="WIyWlLk6GJQsqaUBKTNV-1">
          <mxGeometry x="120" y="210" width="970" height="590" as="geometry" />
        </mxCell>
        <mxCell id="ksosTr8VarCVj8tIcV6C-1" value="&lt;div&gt;top&lt;/div&gt;" style="text;html=1;strokeColor=none;fillColor=none;align=center;verticalAlign=middle;whiteSpace=wrap;rounded=0;fontColor=#206ACE;fontStyle=1;movable=1;resizable=1;rotatable=1;deletable=1;editable=1;locked=0;connectable=1;" vertex="1" parent="WIyWlLk6GJQsqaUBKTNV-1">
          <mxGeometry x="100" y="770" width="60" height="20" as="geometry" />
        </mxCell>
        <mxCell id="ksosTr8VarCVj8tIcV6C-5" value="" style="endArrow=classic;html=1;rounded=0;fontColor=#206ACE;fillColor=#206ACE;strokeColor=#206ACE;fontStyle=1" edge="1" parent="WIyWlLk6GJQsqaUBKTNV-1">
          <mxGeometry width="50" height="50" relative="1" as="geometry">
            <mxPoint x="40" y="240" as="sourcePoint" />
            <mxPoint x="1030" y="240" as="targetPoint" />
          </mxGeometry>
        </mxCell>
        <mxCell id="ksosTr8VarCVj8tIcV6C-8" value="&lt;div&gt;clk&lt;/div&gt;" style="edgeLabel;html=1;align=center;verticalAlign=middle;resizable=0;points=[];fontColor=#206ACE;fontStyle=1" vertex="1" connectable="0" parent="ksosTr8VarCVj8tIcV6C-5">
          <mxGeometry x="-0.8656" y="-1" relative="1" as="geometry">
            <mxPoint x="-17" y="-1" as="offset" />
          </mxGeometry>
        </mxCell>
        <mxCell id="ksosTr8VarCVj8tIcV6C-9" value="" style="endArrow=classic;html=1;rounded=0;fontColor=#206ACE;fillColor=#206ACE;strokeColor=#206ACE;fontStyle=1" edge="1" parent="WIyWlLk6GJQsqaUBKTNV-1">
          <mxGeometry width="50" height="50" relative="1" as="geometry">
            <mxPoint x="40" y="260" as="sourcePoint" />
            <mxPoint x="1030" y="260" as="targetPoint" />
          </mxGeometry>
        </mxCell>
        <mxCell id="ksosTr8VarCVj8tIcV6C-11" value="&lt;div&gt;&lt;span&gt;rst&lt;/span&gt;&lt;/div&gt;" style="edgeLabel;html=1;align=center;verticalAlign=middle;resizable=0;points=[];fontColor=#206ACE;fontStyle=1" vertex="1" connectable="0" parent="ksosTr8VarCVj8tIcV6C-9">
          <mxGeometry x="-0.8687" y="-4" relative="1" as="geometry">
            <mxPoint x="-15" y="-4" as="offset" />
          </mxGeometry>
        </mxCell>
        <mxCell id="ksosTr8VarCVj8tIcV6C-31" style="edgeStyle=orthogonalEdgeStyle;rounded=0;orthogonalLoop=1;jettySize=auto;html=1;exitX=1;exitY=0.25;exitDx=0;exitDy=0;entryX=0;entryY=0.75;entryDx=0;entryDy=0;strokeColor=#206ACE;fontColor=#206ACE;fillColor=#206ACE;fontStyle=1" edge="1" parent="WIyWlLk6GJQsqaUBKTNV-1" source="ksosTr8VarCVj8tIcV6C-14" target="ksosTr8VarCVj8tIcV6C-17">
          <mxGeometry relative="1" as="geometry">
            <Array as="points">
              <mxPoint x="460" y="565" />
              <mxPoint x="460" y="510" />
            </Array>
          </mxGeometry>
        </mxCell>
        <mxCell id="ksosTr8VarCVj8tIcV6C-33" style="edgeStyle=orthogonalEdgeStyle;rounded=0;orthogonalLoop=1;jettySize=auto;html=1;exitX=1;exitY=0.5;exitDx=0;exitDy=0;entryX=0.25;entryY=1;entryDx=0;entryDy=0;strokeColor=#206ACE;fontColor=#206ACE;fillColor=#206ACE;fontStyle=1" edge="1" parent="WIyWlLk6GJQsqaUBKTNV-1" source="ksosTr8VarCVj8tIcV6C-14" target="ksosTr8VarCVj8tIcV6C-16">
          <mxGeometry relative="1" as="geometry" />
        </mxCell>
        <mxCell id="ksosTr8VarCVj8tIcV6C-14" value="&lt;span&gt;keyboard&lt;/span&gt;" style="rounded=0;whiteSpace=wrap;html=1;strokeColor=#206ace;fontColor=#FFFFFF;fillColor=#206ACE;fontStyle=1" vertex="1" parent="WIyWlLk6GJQsqaUBKTNV-1">
          <mxGeometry x="140" y="550" width="100" height="60" as="geometry" />
        </mxCell>
        <mxCell id="ksosTr8VarCVj8tIcV6C-36" style="edgeStyle=orthogonalEdgeStyle;rounded=0;orthogonalLoop=1;jettySize=auto;html=1;exitX=0;exitY=0.25;exitDx=0;exitDy=0;entryX=0.25;entryY=0;entryDx=0;entryDy=0;strokeColor=#206ACE;fontColor=#206ACE;fillColor=#206ACE;" edge="1" parent="WIyWlLk6GJQsqaUBKTNV-1" source="ksosTr8VarCVj8tIcV6C-15" target="ksosTr8VarCVj8tIcV6C-16">
          <mxGeometry relative="1" as="geometry" />
        </mxCell>
        <mxCell id="ksosTr8VarCVj8tIcV6C-38" value="&lt;b&gt;set_en&lt;/b&gt;" style="edgeLabel;html=1;align=center;verticalAlign=middle;resizable=0;points=[];fontColor=#206ACE;" vertex="1" connectable="0" parent="ksosTr8VarCVj8tIcV6C-36">
          <mxGeometry x="0.8578" relative="1" as="geometry">
            <mxPoint as="offset" />
          </mxGeometry>
        </mxCell>
        <mxCell id="ksosTr8VarCVj8tIcV6C-57" style="edgeStyle=orthogonalEdgeStyle;rounded=0;orthogonalLoop=1;jettySize=auto;html=1;exitX=1;exitY=0.75;exitDx=0;exitDy=0;entryX=1;entryY=0.25;entryDx=0;entryDy=0;strokeColor=#206ACE;fontColor=#206ACE;fillColor=#206ACE;" edge="1" parent="WIyWlLk6GJQsqaUBKTNV-1" source="ksosTr8VarCVj8tIcV6C-15" target="ksosTr8VarCVj8tIcV6C-17">
          <mxGeometry relative="1" as="geometry" />
        </mxCell>
        <mxCell id="ksosTr8VarCVj8tIcV6C-58" value="&lt;b&gt;ver_en&lt;/b&gt;" style="edgeLabel;html=1;align=center;verticalAlign=middle;resizable=0;points=[];fontColor=#206ACE;" vertex="1" connectable="0" parent="ksosTr8VarCVj8tIcV6C-57">
          <mxGeometry x="0.5192" y="1" relative="1" as="geometry">
            <mxPoint as="offset" />
          </mxGeometry>
        </mxCell>
        <mxCell id="ksosTr8VarCVj8tIcV6C-71" style="edgeStyle=orthogonalEdgeStyle;rounded=0;orthogonalLoop=1;jettySize=auto;html=1;exitX=1;exitY=0.5;exitDx=0;exitDy=0;entryX=0.5;entryY=0;entryDx=0;entryDy=0;strokeColor=#206ACE;fontColor=#206ACE;fillColor=#206ACE;" edge="1" parent="WIyWlLk6GJQsqaUBKTNV-1" source="ksosTr8VarCVj8tIcV6C-15" target="ksosTr8VarCVj8tIcV6C-18">
          <mxGeometry relative="1" as="geometry" />
        </mxCell>
        <mxCell id="ksosTr8VarCVj8tIcV6C-72" value="&lt;b&gt;num_mode&lt;/b&gt;" style="edgeLabel;html=1;align=center;verticalAlign=middle;resizable=0;points=[];fontColor=#206ACE;" vertex="1" connectable="0" parent="ksosTr8VarCVj8tIcV6C-71">
          <mxGeometry x="0.8798" y="2" relative="1" as="geometry">
            <mxPoint as="offset" />
          </mxGeometry>
        </mxCell>
        <mxCell id="ksosTr8VarCVj8tIcV6C-15" value="&lt;div&gt;&lt;span&gt;machine&lt;/span&gt;&lt;/div&gt;" style="rounded=0;whiteSpace=wrap;html=1;strokeColor=#206ace;fontColor=#FFFFFF;fillColor=#206ACE;fontStyle=1" vertex="1" parent="WIyWlLk6GJQsqaUBKTNV-1">
          <mxGeometry x="490" y="330" width="100" height="60" as="geometry" />
        </mxCell>
        <mxCell id="ksosTr8VarCVj8tIcV6C-40" style="edgeStyle=orthogonalEdgeStyle;rounded=0;orthogonalLoop=1;jettySize=auto;html=1;exitX=0.5;exitY=0;exitDx=0;exitDy=0;entryX=0;entryY=0.75;entryDx=0;entryDy=0;strokeColor=#206ACE;fontColor=#206ACE;fillColor=#206ACE;" edge="1" parent="WIyWlLk6GJQsqaUBKTNV-1" source="ksosTr8VarCVj8tIcV6C-16" target="ksosTr8VarCVj8tIcV6C-15">
          <mxGeometry relative="1" as="geometry" />
        </mxCell>
        <mxCell id="ksosTr8VarCVj8tIcV6C-41" value="&lt;b&gt;set_ok&lt;/b&gt;" style="edgeLabel;html=1;align=center;verticalAlign=middle;resizable=0;points=[];fontColor=#206ACE;" vertex="1" connectable="0" parent="ksosTr8VarCVj8tIcV6C-40">
          <mxGeometry x="0.7405" y="1" relative="1" as="geometry">
            <mxPoint x="-6" y="1" as="offset" />
          </mxGeometry>
        </mxCell>
        <mxCell id="ksosTr8VarCVj8tIcV6C-67" style="edgeStyle=orthogonalEdgeStyle;rounded=0;orthogonalLoop=1;jettySize=auto;html=1;exitX=0.75;exitY=1;exitDx=0;exitDy=0;entryX=0;entryY=0.5;entryDx=0;entryDy=0;strokeColor=#206ACE;fontColor=#206ACE;fillColor=#206ACE;" edge="1" parent="WIyWlLk6GJQsqaUBKTNV-1" source="ksosTr8VarCVj8tIcV6C-16" target="ksosTr8VarCVj8tIcV6C-18">
          <mxGeometry relative="1" as="geometry" />
        </mxCell>
        <mxCell id="ksosTr8VarCVj8tIcV6C-68" value="&lt;b&gt;set_num&lt;/b&gt;" style="edgeLabel;html=1;align=center;verticalAlign=middle;resizable=0;points=[];fontColor=#206ACE;" vertex="1" connectable="0" parent="ksosTr8VarCVj8tIcV6C-67">
          <mxGeometry x="0.7831" y="1" relative="1" as="geometry">
            <mxPoint as="offset" />
          </mxGeometry>
        </mxCell>
        <mxCell id="ksosTr8VarCVj8tIcV6C-69" style="edgeStyle=orthogonalEdgeStyle;rounded=0;orthogonalLoop=1;jettySize=auto;html=1;exitX=0.5;exitY=1;exitDx=0;exitDy=0;entryX=0;entryY=0.75;entryDx=0;entryDy=0;strokeColor=#206ACE;fontColor=#206ACE;fillColor=#206ACE;" edge="1" parent="WIyWlLk6GJQsqaUBKTNV-1" source="ksosTr8VarCVj8tIcV6C-16" target="ksosTr8VarCVj8tIcV6C-18">
          <mxGeometry relative="1" as="geometry" />
        </mxCell>
        <mxCell id="ksosTr8VarCVj8tIcV6C-70" value="&lt;b&gt;set_mask&lt;/b&gt;" style="edgeLabel;html=1;align=center;verticalAlign=middle;resizable=0;points=[];fontColor=#206ACE;" vertex="1" connectable="0" parent="ksosTr8VarCVj8tIcV6C-69">
          <mxGeometry x="0.7884" relative="1" as="geometry">
            <mxPoint as="offset" />
          </mxGeometry>
        </mxCell>
        <mxCell id="ksosTr8VarCVj8tIcV6C-16" value="&lt;span&gt;set_password&lt;/span&gt;" style="rounded=0;whiteSpace=wrap;html=1;strokeColor=#206ace;fontColor=#FFFFFF;fillColor=#206ACE;fontStyle=1" vertex="1" parent="WIyWlLk6GJQsqaUBKTNV-1">
          <mxGeometry x="300" y="465" width="100" height="60" as="geometry" />
        </mxCell>
        <mxCell id="ksosTr8VarCVj8tIcV6C-51" style="edgeStyle=orthogonalEdgeStyle;rounded=0;orthogonalLoop=1;jettySize=auto;html=1;exitX=0.25;exitY=0;exitDx=0;exitDy=0;entryX=0.25;entryY=1;entryDx=0;entryDy=0;strokeColor=#206ACE;fontColor=#206ACE;fillColor=#206ACE;" edge="1" parent="WIyWlLk6GJQsqaUBKTNV-1" source="ksosTr8VarCVj8tIcV6C-17" target="ksosTr8VarCVj8tIcV6C-15">
          <mxGeometry relative="1" as="geometry" />
        </mxCell>
        <mxCell id="ksosTr8VarCVj8tIcV6C-54" value="&lt;b&gt;ok&lt;/b&gt;" style="edgeLabel;html=1;align=center;verticalAlign=middle;resizable=0;points=[];fontColor=#206ACE;" vertex="1" connectable="0" parent="ksosTr8VarCVj8tIcV6C-51">
          <mxGeometry x="0.2533" y="1" relative="1" as="geometry">
            <mxPoint as="offset" />
          </mxGeometry>
        </mxCell>
        <mxCell id="ksosTr8VarCVj8tIcV6C-52" style="edgeStyle=orthogonalEdgeStyle;rounded=0;orthogonalLoop=1;jettySize=auto;html=1;exitX=0.5;exitY=0;exitDx=0;exitDy=0;entryX=0.5;entryY=1;entryDx=0;entryDy=0;strokeColor=#206ACE;fontColor=#206ACE;fillColor=#206ACE;" edge="1" parent="WIyWlLk6GJQsqaUBKTNV-1" source="ksosTr8VarCVj8tIcV6C-17" target="ksosTr8VarCVj8tIcV6C-15">
          <mxGeometry relative="1" as="geometry" />
        </mxCell>
        <mxCell id="ksosTr8VarCVj8tIcV6C-55" value="&lt;b&gt;fail&lt;/b&gt;" style="edgeLabel;html=1;align=center;verticalAlign=middle;resizable=0;points=[];fontColor=#206ACE;" vertex="1" connectable="0" parent="ksosTr8VarCVj8tIcV6C-52">
          <mxGeometry x="0.2025" y="1" relative="1" as="geometry">
            <mxPoint as="offset" />
          </mxGeometry>
        </mxCell>
        <mxCell id="ksosTr8VarCVj8tIcV6C-53" style="edgeStyle=orthogonalEdgeStyle;rounded=0;orthogonalLoop=1;jettySize=auto;html=1;exitX=0.75;exitY=0;exitDx=0;exitDy=0;entryX=0.75;entryY=1;entryDx=0;entryDy=0;strokeColor=#206ACE;fontColor=#206ACE;fillColor=#206ACE;" edge="1" parent="WIyWlLk6GJQsqaUBKTNV-1" source="ksosTr8VarCVj8tIcV6C-17" target="ksosTr8VarCVj8tIcV6C-15">
          <mxGeometry relative="1" as="geometry" />
        </mxCell>
        <mxCell id="ksosTr8VarCVj8tIcV6C-56" value="&lt;b&gt;dead&lt;/b&gt;" style="edgeLabel;html=1;align=center;verticalAlign=middle;resizable=0;points=[];fontColor=#206ACE;" vertex="1" connectable="0" parent="ksosTr8VarCVj8tIcV6C-53">
          <mxGeometry x="0.1898" relative="1" as="geometry">
            <mxPoint as="offset" />
          </mxGeometry>
        </mxCell>
        <mxCell id="ksosTr8VarCVj8tIcV6C-63" style="edgeStyle=orthogonalEdgeStyle;rounded=0;orthogonalLoop=1;jettySize=auto;html=1;exitX=0.5;exitY=1;exitDx=0;exitDy=0;entryX=0;entryY=0.25;entryDx=0;entryDy=0;strokeColor=#206ACE;fontColor=#206ACE;fillColor=#206ACE;" edge="1" parent="WIyWlLk6GJQsqaUBKTNV-1" source="ksosTr8VarCVj8tIcV6C-17" target="ksosTr8VarCVj8tIcV6C-18">
          <mxGeometry relative="1" as="geometry">
            <Array as="points">
              <mxPoint x="540" y="570" />
            </Array>
          </mxGeometry>
        </mxCell>
        <mxCell id="ksosTr8VarCVj8tIcV6C-65" value="&lt;b&gt;ver_num&lt;/b&gt;" style="edgeLabel;html=1;align=center;verticalAlign=middle;resizable=0;points=[];fontColor=#206ACE;" vertex="1" connectable="0" parent="ksosTr8VarCVj8tIcV6C-63">
          <mxGeometry x="0.8103" y="1" relative="1" as="geometry">
            <mxPoint x="-35" y="1" as="offset" />
          </mxGeometry>
        </mxCell>
        <mxCell id="ksosTr8VarCVj8tIcV6C-102" style="edgeStyle=orthogonalEdgeStyle;rounded=0;orthogonalLoop=1;jettySize=auto;html=1;exitX=0.75;exitY=1;exitDx=0;exitDy=0;entryX=0.25;entryY=0;entryDx=0;entryDy=0;strokeColor=#206ACE;fontColor=#206ACE;fillColor=#206ACE;" edge="1" parent="WIyWlLk6GJQsqaUBKTNV-1" source="ksosTr8VarCVj8tIcV6C-17" target="ksosTr8VarCVj8tIcV6C-18">
          <mxGeometry relative="1" as="geometry">
            <Array as="points">
              <mxPoint x="565" y="545" />
              <mxPoint x="675" y="545" />
            </Array>
          </mxGeometry>
        </mxCell>
        <mxCell id="ksosTr8VarCVj8tIcV6C-103" value="&lt;b&gt;ver_mask&lt;/b&gt;" style="edgeLabel;html=1;align=center;verticalAlign=middle;resizable=0;points=[];fontColor=#206ACE;" vertex="1" connectable="0" parent="ksosTr8VarCVj8tIcV6C-102">
          <mxGeometry x="0.2139" y="-2" relative="1" as="geometry">
            <mxPoint as="offset" />
          </mxGeometry>
        </mxCell>
        <mxCell id="ksosTr8VarCVj8tIcV6C-17" value="&lt;span&gt;ver_password&lt;/span&gt;" style="rounded=0;whiteSpace=wrap;html=1;strokeColor=#206ace;fontColor=#FFFFFF;fillColor=#206ACE;fontStyle=1" vertex="1" parent="WIyWlLk6GJQsqaUBKTNV-1">
          <mxGeometry x="490" y="465" width="100" height="60" as="geometry" />
        </mxCell>
        <mxCell id="ksosTr8VarCVj8tIcV6C-73" style="edgeStyle=orthogonalEdgeStyle;rounded=0;orthogonalLoop=1;jettySize=auto;html=1;exitX=1;exitY=0.5;exitDx=0;exitDy=0;entryX=0;entryY=0.5;entryDx=0;entryDy=0;strokeColor=#206ACE;fontColor=#206ACE;fillColor=#206ACE;" edge="1" parent="WIyWlLk6GJQsqaUBKTNV-1" source="ksosTr8VarCVj8tIcV6C-18" target="ksosTr8VarCVj8tIcV6C-19">
          <mxGeometry relative="1" as="geometry" />
        </mxCell>
        <mxCell id="ksosTr8VarCVj8tIcV6C-74" value="&lt;b&gt;num_led&lt;/b&gt;" style="edgeLabel;html=1;align=center;verticalAlign=middle;resizable=0;points=[];fontColor=#206ACE;" vertex="1" connectable="0" parent="ksosTr8VarCVj8tIcV6C-73">
          <mxGeometry x="0.2792" relative="1" as="geometry">
            <mxPoint x="179" y="-15" as="offset" />
          </mxGeometry>
        </mxCell>
        <mxCell id="ksosTr8VarCVj8tIcV6C-81" value="&lt;b&gt;nums&lt;/b&gt;" style="edgeLabel;html=1;align=center;verticalAlign=middle;resizable=0;points=[];fontColor=#206ACE;" vertex="1" connectable="0" parent="ksosTr8VarCVj8tIcV6C-73">
          <mxGeometry x="0.2857" y="1" relative="1" as="geometry">
            <mxPoint as="offset" />
          </mxGeometry>
        </mxCell>
        <mxCell id="ksosTr8VarCVj8tIcV6C-75" style="edgeStyle=orthogonalEdgeStyle;rounded=0;orthogonalLoop=1;jettySize=auto;html=1;exitX=1;exitY=0.75;exitDx=0;exitDy=0;entryX=0;entryY=0.75;entryDx=0;entryDy=0;strokeColor=#206ACE;fontColor=#206ACE;fillColor=#206ACE;" edge="1" parent="WIyWlLk6GJQsqaUBKTNV-1" source="ksosTr8VarCVj8tIcV6C-18" target="ksosTr8VarCVj8tIcV6C-19">
          <mxGeometry relative="1" as="geometry" />
        </mxCell>
        <mxCell id="ksosTr8VarCVj8tIcV6C-76" value="&lt;b&gt;num_mask&lt;/b&gt;" style="edgeLabel;html=1;align=center;verticalAlign=middle;resizable=0;points=[];fontColor=#206ACE;" vertex="1" connectable="0" parent="ksosTr8VarCVj8tIcV6C-75">
          <mxGeometry x="0.2167" y="-2" relative="1" as="geometry">
            <mxPoint x="191" as="offset" />
          </mxGeometry>
        </mxCell>
        <mxCell id="ksosTr8VarCVj8tIcV6C-80" value="&lt;b&gt;mask&lt;/b&gt;" style="edgeLabel;html=1;align=center;verticalAlign=middle;resizable=0;points=[];fontColor=#206ACE;" vertex="1" connectable="0" parent="ksosTr8VarCVj8tIcV6C-75">
          <mxGeometry x="0.2571" y="-2" relative="1" as="geometry">
            <mxPoint as="offset" />
          </mxGeometry>
        </mxCell>
        <mxCell id="ksosTr8VarCVj8tIcV6C-18" value="&lt;span&gt;num_switcher&lt;/span&gt;" style="rounded=0;whiteSpace=wrap;html=1;strokeColor=#206ace;fontColor=#FFFFFF;fillColor=#206ACE;fontStyle=1" vertex="1" parent="WIyWlLk6GJQsqaUBKTNV-1">
          <mxGeometry x="650" y="555" width="100" height="60" as="geometry" />
        </mxCell>
        <mxCell id="ksosTr8VarCVj8tIcV6C-77" style="edgeStyle=orthogonalEdgeStyle;rounded=0;orthogonalLoop=1;jettySize=auto;html=1;exitX=1;exitY=0.25;exitDx=0;exitDy=0;strokeColor=#206ACE;fontColor=#206ACE;fillColor=#206ACE;" edge="1" parent="WIyWlLk6GJQsqaUBKTNV-1" source="ksosTr8VarCVj8tIcV6C-19">
          <mxGeometry relative="1" as="geometry">
            <mxPoint x="1110" y="570" as="targetPoint" />
          </mxGeometry>
        </mxCell>
        <mxCell id="ksosTr8VarCVj8tIcV6C-78" style="edgeStyle=orthogonalEdgeStyle;rounded=0;orthogonalLoop=1;jettySize=auto;html=1;exitX=1;exitY=0.75;exitDx=0;exitDy=0;strokeColor=#206ACE;fontColor=#206ACE;fillColor=#206ACE;" edge="1" parent="WIyWlLk6GJQsqaUBKTNV-1" source="ksosTr8VarCVj8tIcV6C-19">
          <mxGeometry relative="1" as="geometry">
            <mxPoint x="1110" y="600" as="targetPoint" />
          </mxGeometry>
        </mxCell>
        <mxCell id="ksosTr8VarCVj8tIcV6C-19" value="&lt;span&gt;num_led_ctl&lt;/span&gt;" style="rounded=0;whiteSpace=wrap;html=1;strokeColor=#206ace;fontColor=#FFFFFF;fillColor=#206ACE;fontStyle=1" vertex="1" parent="WIyWlLk6GJQsqaUBKTNV-1">
          <mxGeometry x="830" y="555" width="100" height="60" as="geometry" />
        </mxCell>
        <mxCell id="ksosTr8VarCVj8tIcV6C-20" value="" style="endArrow=classic;html=1;rounded=0;strokeColor=#206ACE;fontColor=#FFFFFF;fillColor=#206ACE;exitX=1;exitY=0.5;exitDx=0;exitDy=0;entryX=0;entryY=0.5;entryDx=0;entryDy=0;fontStyle=1" edge="1" parent="WIyWlLk6GJQsqaUBKTNV-1" source="ksosTr8VarCVj8tIcV6C-16" target="ksosTr8VarCVj8tIcV6C-17">
          <mxGeometry width="50" height="50" relative="1" as="geometry">
            <mxPoint x="540" y="480" as="sourcePoint" />
            <mxPoint x="590" y="430" as="targetPoint" />
          </mxGeometry>
        </mxCell>
        <mxCell id="ksosTr8VarCVj8tIcV6C-21" value="&lt;font color=&quot;#206ACE&quot;&gt;pwd&lt;/font&gt;" style="edgeLabel;html=1;align=center;verticalAlign=middle;resizable=0;points=[];fontColor=#FFFFFF;fontStyle=1" vertex="1" connectable="0" parent="ksosTr8VarCVj8tIcV6C-20">
          <mxGeometry x="0.1754" y="1" relative="1" as="geometry">
            <mxPoint as="offset" />
          </mxGeometry>
        </mxCell>
        <mxCell id="ksosTr8VarCVj8tIcV6C-26" value="" style="endArrow=classic;html=1;rounded=0;strokeColor=#206ACE;fontColor=#206ACE;fillColor=#206ACE;exitX=1;exitY=0.25;exitDx=0;exitDy=0;entryX=0;entryY=0.75;entryDx=0;entryDy=0;fontStyle=1" edge="1" parent="WIyWlLk6GJQsqaUBKTNV-1" source="ksosTr8VarCVj8tIcV6C-14" target="ksosTr8VarCVj8tIcV6C-16">
          <mxGeometry width="50" height="50" relative="1" as="geometry">
            <mxPoint x="540" y="440" as="sourcePoint" />
            <mxPoint x="590" y="390" as="targetPoint" />
            <Array as="points">
              <mxPoint x="260" y="565" />
              <mxPoint x="260" y="510" />
            </Array>
          </mxGeometry>
        </mxCell>
        <mxCell id="ksosTr8VarCVj8tIcV6C-28" value="&lt;span&gt;key_en&lt;/span&gt;" style="edgeLabel;html=1;align=center;verticalAlign=middle;resizable=0;points=[];fontColor=#206ACE;fontStyle=1" vertex="1" connectable="0" parent="ksosTr8VarCVj8tIcV6C-26">
          <mxGeometry x="-0.554" y="2" relative="1" as="geometry">
            <mxPoint x="12" y="-54" as="offset" />
          </mxGeometry>
        </mxCell>
        <mxCell id="ksosTr8VarCVj8tIcV6C-59" value="" style="endArrow=classic;html=1;rounded=0;strokeColor=#206ACE;fontColor=#206ACE;fillColor=#206ACE;entryX=0.25;entryY=0;entryDx=0;entryDy=0;" edge="1" parent="WIyWlLk6GJQsqaUBKTNV-1" target="ksosTr8VarCVj8tIcV6C-15">
          <mxGeometry width="50" height="50" relative="1" as="geometry">
            <mxPoint x="515" y="170" as="sourcePoint" />
            <mxPoint x="530" y="320" as="targetPoint" />
          </mxGeometry>
        </mxCell>
        <mxCell id="ksosTr8VarCVj8tIcV6C-60" value="&lt;div&gt;&lt;b&gt;btn_set&lt;/b&gt;&lt;/div&gt;" style="edgeLabel;html=1;align=center;verticalAlign=middle;resizable=0;points=[];fontColor=#206ACE;" vertex="1" connectable="0" parent="ksosTr8VarCVj8tIcV6C-59">
          <mxGeometry x="0.6896" y="-1" relative="1" as="geometry">
            <mxPoint as="offset" />
          </mxGeometry>
        </mxCell>
        <mxCell id="ksosTr8VarCVj8tIcV6C-61" value="" style="endArrow=classic;html=1;rounded=0;strokeColor=#206ACE;fontColor=#206ACE;fillColor=#206ACE;entryX=0.75;entryY=0;entryDx=0;entryDy=0;" edge="1" parent="WIyWlLk6GJQsqaUBKTNV-1" target="ksosTr8VarCVj8tIcV6C-15">
          <mxGeometry width="50" height="50" relative="1" as="geometry">
            <mxPoint x="565" y="170" as="sourcePoint" />
            <mxPoint x="540" y="290" as="targetPoint" />
          </mxGeometry>
        </mxCell>
        <mxCell id="ksosTr8VarCVj8tIcV6C-62" value="&lt;div&gt;&lt;b&gt;btn_ver&lt;/b&gt;&lt;/div&gt;" style="edgeLabel;html=1;align=center;verticalAlign=middle;resizable=0;points=[];fontColor=#206ACE;" vertex="1" connectable="0" parent="ksosTr8VarCVj8tIcV6C-61">
          <mxGeometry x="0.6896" y="-1" relative="1" as="geometry">
            <mxPoint as="offset" />
          </mxGeometry>
        </mxCell>
        <mxCell id="ksosTr8VarCVj8tIcV6C-82" value="" style="endArrow=classic;html=1;rounded=0;strokeColor=#206ACE;fontColor=#206ACE;fillColor=#206ACE;entryX=0.75;entryY=0;entryDx=0;entryDy=0;" edge="1" parent="WIyWlLk6GJQsqaUBKTNV-1" target="ksosTr8VarCVj8tIcV6C-16">
          <mxGeometry width="50" height="50" relative="1" as="geometry">
            <mxPoint x="375" y="170" as="sourcePoint" />
            <mxPoint x="620" y="380" as="targetPoint" />
          </mxGeometry>
        </mxCell>
        <mxCell id="ksosTr8VarCVj8tIcV6C-83" value="&lt;b&gt;btn_confirm&lt;/b&gt;" style="edgeLabel;html=1;align=center;verticalAlign=middle;resizable=0;points=[];fontColor=#206ACE;" vertex="1" connectable="0" parent="ksosTr8VarCVj8tIcV6C-82">
          <mxGeometry x="0.8576" relative="1" as="geometry">
            <mxPoint x="15" as="offset" />
          </mxGeometry>
        </mxCell>
        <mxCell id="ksosTr8VarCVj8tIcV6C-84" value="&lt;span&gt;key_en&lt;/span&gt;" style="edgeLabel;html=1;align=center;verticalAlign=middle;resizable=0;points=[];fontColor=#206ACE;fontStyle=1" vertex="1" connectable="0" parent="WIyWlLk6GJQsqaUBKTNV-1">
          <mxGeometry x="450" y="525" as="geometry">
            <mxPoint x="6" y="-1" as="offset" />
          </mxGeometry>
        </mxCell>
        <mxCell id="ksosTr8VarCVj8tIcV6C-86" value="key_num" style="edgeLabel;html=1;align=center;verticalAlign=middle;resizable=0;points=[];fontColor=#206ACE;fontStyle=1" vertex="1" connectable="0" parent="WIyWlLk6GJQsqaUBKTNV-1">
          <mxGeometry x="320" y="540" as="geometry" />
        </mxCell>
        <mxCell id="ksosTr8VarCVj8tIcV6C-87" value="" style="endArrow=classic;html=1;rounded=0;strokeColor=#206ACE;fontColor=#206ACE;fillColor=#206ACE;entryX=0;entryY=0.25;entryDx=0;entryDy=0;" edge="1" parent="WIyWlLk6GJQsqaUBKTNV-1" target="ksosTr8VarCVj8tIcV6C-17">
          <mxGeometry width="50" height="50" relative="1" as="geometry">
            <mxPoint x="375" y="430" as="sourcePoint" />
            <mxPoint x="485" y="480" as="targetPoint" />
            <Array as="points">
              <mxPoint x="425" y="430" />
              <mxPoint x="425" y="480" />
            </Array>
          </mxGeometry>
        </mxCell>
        <mxCell id="ksosTr8VarCVj8tIcV6C-88" value="&lt;b&gt;btn_confirm&lt;/b&gt;" style="edgeLabel;html=1;align=center;verticalAlign=middle;resizable=0;points=[];fontColor=#206ACE;" vertex="1" connectable="0" parent="ksosTr8VarCVj8tIcV6C-87">
          <mxGeometry x="0.8576" relative="1" as="geometry">
            <mxPoint x="-18" y="-10" as="offset" />
          </mxGeometry>
        </mxCell>
        <mxCell id="ksosTr8VarCVj8tIcV6C-91" value="" style="endArrow=classic;html=1;rounded=0;strokeColor=#206ACE;fontColor=#206ACE;fillColor=#206ACE;" edge="1" parent="WIyWlLk6GJQsqaUBKTNV-1">
          <mxGeometry width="50" height="50" relative="1" as="geometry">
            <mxPoint x="165" y="240" as="sourcePoint" />
            <mxPoint x="165" y="550" as="targetPoint" />
          </mxGeometry>
        </mxCell>
        <mxCell id="ksosTr8VarCVj8tIcV6C-92" value="" style="endArrow=classic;html=1;rounded=0;strokeColor=#206ACE;fontColor=#206ACE;fillColor=#206ACE;" edge="1" parent="WIyWlLk6GJQsqaUBKTNV-1">
          <mxGeometry width="50" height="50" relative="1" as="geometry">
            <mxPoint x="189.57999999999998" y="260" as="sourcePoint" />
            <mxPoint x="190" y="550" as="targetPoint" />
          </mxGeometry>
        </mxCell>
        <mxCell id="ksosTr8VarCVj8tIcV6C-93" value="" style="endArrow=classic;html=1;rounded=0;strokeColor=#206ACE;fontColor=#206ACE;fillColor=#206ACE;entryX=0;entryY=0.25;entryDx=0;entryDy=0;" edge="1" parent="WIyWlLk6GJQsqaUBKTNV-1" target="ksosTr8VarCVj8tIcV6C-16">
          <mxGeometry width="50" height="50" relative="1" as="geometry">
            <mxPoint x="280" y="260" as="sourcePoint" />
            <mxPoint x="490" y="300" as="targetPoint" />
            <Array as="points">
              <mxPoint x="280" y="480" />
            </Array>
          </mxGeometry>
        </mxCell>
        <mxCell id="ksosTr8VarCVj8tIcV6C-95" value="" style="endArrow=classic;html=1;rounded=0;strokeColor=#206ACE;fontColor=#206ACE;fillColor=#206ACE;entryX=0;entryY=0.5;entryDx=0;entryDy=0;" edge="1" parent="WIyWlLk6GJQsqaUBKTNV-1" target="ksosTr8VarCVj8tIcV6C-16">
          <mxGeometry width="50" height="50" relative="1" as="geometry">
            <mxPoint x="250" y="240" as="sourcePoint" />
            <mxPoint x="490" y="300" as="targetPoint" />
            <Array as="points">
              <mxPoint x="250" y="495" />
            </Array>
          </mxGeometry>
        </mxCell>
        <mxCell id="ksosTr8VarCVj8tIcV6C-96" value="" style="endArrow=classic;html=1;rounded=0;strokeColor=#206ACE;fontColor=#206ACE;fillColor=#206ACE;entryX=0.5;entryY=0;entryDx=0;entryDy=0;" edge="1" parent="WIyWlLk6GJQsqaUBKTNV-1" target="ksosTr8VarCVj8tIcV6C-15">
          <mxGeometry width="50" height="50" relative="1" as="geometry">
            <mxPoint x="540" y="240" as="sourcePoint" />
            <mxPoint x="430" y="390" as="targetPoint" />
          </mxGeometry>
        </mxCell>
        <mxCell id="ksosTr8VarCVj8tIcV6C-97" value="" style="endArrow=classic;html=1;rounded=0;strokeColor=#206ACE;fontColor=#206ACE;fillColor=#206ACE;entryX=1;entryY=0.25;entryDx=0;entryDy=0;" edge="1" parent="WIyWlLk6GJQsqaUBKTNV-1" target="ksosTr8VarCVj8tIcV6C-15">
          <mxGeometry width="50" height="50" relative="1" as="geometry">
            <mxPoint x="610" y="260" as="sourcePoint" />
            <mxPoint x="740" y="280" as="targetPoint" />
            <Array as="points">
              <mxPoint x="610" y="345" />
            </Array>
          </mxGeometry>
        </mxCell>
        <mxCell id="ksosTr8VarCVj8tIcV6C-99" value="" style="endArrow=classic;html=1;rounded=0;strokeColor=#206ACE;fontColor=#206ACE;fillColor=#206ACE;exitX=1;exitY=0.5;exitDx=0;exitDy=0;entryX=0.25;entryY=1;entryDx=0;entryDy=0;" edge="1" parent="WIyWlLk6GJQsqaUBKTNV-1" source="ksosTr8VarCVj8tIcV6C-14" target="ksosTr8VarCVj8tIcV6C-17">
          <mxGeometry width="50" height="50" relative="1" as="geometry">
            <mxPoint x="580" y="440" as="sourcePoint" />
            <mxPoint x="630" y="390" as="targetPoint" />
            <Array as="points">
              <mxPoint x="515" y="580" />
            </Array>
          </mxGeometry>
        </mxCell>
        <mxCell id="ksosTr8VarCVj8tIcV6C-100" value="" style="endArrow=classic;html=1;rounded=0;strokeColor=#206ACE;fontColor=#206ACE;fillColor=#206ACE;entryX=1;entryY=0.5;entryDx=0;entryDy=0;" edge="1" parent="WIyWlLk6GJQsqaUBKTNV-1" target="ksosTr8VarCVj8tIcV6C-17">
          <mxGeometry width="50" height="50" relative="1" as="geometry">
            <mxPoint x="640" y="240" as="sourcePoint" />
            <mxPoint x="630" y="430" as="targetPoint" />
            <Array as="points">
              <mxPoint x="640" y="495" />
            </Array>
          </mxGeometry>
        </mxCell>
        <mxCell id="ksosTr8VarCVj8tIcV6C-101" value="" style="endArrow=classic;html=1;rounded=0;strokeColor=#206ACE;fontColor=#206ACE;fillColor=#206ACE;entryX=1;entryY=0.75;entryDx=0;entryDy=0;" edge="1" parent="WIyWlLk6GJQsqaUBKTNV-1" target="ksosTr8VarCVj8tIcV6C-17">
          <mxGeometry width="50" height="50" relative="1" as="geometry">
            <mxPoint x="670" y="260" as="sourcePoint" />
            <mxPoint x="630" y="430" as="targetPoint" />
            <Array as="points">
              <mxPoint x="670" y="510" />
            </Array>
          </mxGeometry>
        </mxCell>
        <mxCell id="ksosTr8VarCVj8tIcV6C-104" value="" style="endArrow=classic;html=1;rounded=0;strokeColor=#206ACE;fontColor=#206ACE;fillColor=#206ACE;entryX=0.75;entryY=0;entryDx=0;entryDy=0;" edge="1" parent="WIyWlLk6GJQsqaUBKTNV-1" target="ksosTr8VarCVj8tIcV6C-18">
          <mxGeometry width="50" height="50" relative="1" as="geometry">
            <mxPoint x="725" y="240" as="sourcePoint" />
            <mxPoint x="780" y="370" as="targetPoint" />
          </mxGeometry>
        </mxCell>
        <mxCell id="ksosTr8VarCVj8tIcV6C-106" value="" style="endArrow=classic;html=1;rounded=0;strokeColor=#206ACE;fontColor=#206ACE;fillColor=#206ACE;entryX=1;entryY=0.25;entryDx=0;entryDy=0;" edge="1" parent="WIyWlLk6GJQsqaUBKTNV-1" target="ksosTr8VarCVj8tIcV6C-18">
          <mxGeometry width="50" height="50" relative="1" as="geometry">
            <mxPoint x="770" y="260" as="sourcePoint" />
            <mxPoint x="810" y="350" as="targetPoint" />
            <Array as="points">
              <mxPoint x="770" y="570" />
            </Array>
          </mxGeometry>
        </mxCell>
        <mxCell id="ksosTr8VarCVj8tIcV6C-107" value="" style="endArrow=classic;html=1;rounded=0;strokeColor=#206ACE;fontColor=#206ACE;fillColor=#206ACE;entryX=0.25;entryY=0;entryDx=0;entryDy=0;" edge="1" parent="WIyWlLk6GJQsqaUBKTNV-1" target="ksosTr8VarCVj8tIcV6C-19">
          <mxGeometry width="50" height="50" relative="1" as="geometry">
            <mxPoint x="855" y="240" as="sourcePoint" />
            <mxPoint x="890" y="380" as="targetPoint" />
          </mxGeometry>
        </mxCell>
        <mxCell id="ksosTr8VarCVj8tIcV6C-108" value="" style="endArrow=classic;html=1;rounded=0;strokeColor=#206ACE;fontColor=#206ACE;fillColor=#206ACE;" edge="1" parent="WIyWlLk6GJQsqaUBKTNV-1" target="ksosTr8VarCVj8tIcV6C-19">
          <mxGeometry width="50" height="50" relative="1" as="geometry">
            <mxPoint x="880" y="260" as="sourcePoint" />
            <mxPoint x="920" y="390" as="targetPoint" />
          </mxGeometry>
        </mxCell>
      </root>
    </mxGraphModel>
  </diagram>
</mxfile>
